<svg version="1.1" id="Layer_1" xmlns="http://www.w3.org/2000/svg" xmlns:xlink="http://www.w3.org/1999/xlink" x="0px" y="0px"
	 width="100%" viewBox="0 0 2000 2000" enable-background="new 0 0 2000 2000" xml:space="preserve">
<path fill="#000000" opacity="1.000000" stroke="none" 
	d="
M952.000000,2001.000000 
	C634.666687,2001.000000 317.833344,2001.000000 1.000000,2001.000000 
	C1.000000,1334.333374 1.000000,667.666687 1.000000,1.000000 
	C667.666687,1.000000 1334.333374,1.000000 2001.000000,1.000000 
	C2001.000000,667.666687 2001.000000,1334.333374 2001.000000,2001.000000 
	C1651.500000,2001.000000 1302.000000,2001.000000 952.000000,2001.000000 
M1101.022339,610.024475 
	C940.035461,610.016418 779.048645,610.008057 618.061768,610.007507 
	C617.066101,610.007507 616.070496,610.117798 614.204529,610.040588 
	C608.389709,610.914490 602.445862,611.290649 596.784973,612.758118 
	C581.532471,616.712097 568.989746,625.083374 559.736145,637.870056 
	C551.254517,649.590088 545.967896,662.524109 545.971985,677.351440 
	C546.016907,840.845154 545.985046,1004.338806 546.022156,1167.832520 
	C546.026123,1185.330811 552.830200,1200.182129 564.477295,1212.969482 
	C571.780273,1220.987305 580.606689,1226.654907 590.761780,1230.530518 
	C593.105408,1231.424927 595.555481,1233.924561 596.505188,1236.272583 
	C601.602051,1248.874634 609.104126,1259.572388 620.128723,1267.577393 
	C631.427002,1275.781250 643.832703,1281.015259 658.109863,1281.013428 
	C821.270264,1280.992310 984.430664,1280.979980 1147.591064,1281.050537 
	C1157.229980,1281.054688 1166.167480,1279.147827 1175.197876,1275.573242 
	C1199.318359,1266.025391 1217.011719,1239.025513 1217.008911,1213.108765 
	C1216.991211,1050.448364 1217.007690,887.787903 1216.954956,725.127502 
	C1216.953613,721.034790 1216.766357,716.830994 1215.849365,712.867859 
	C1209.919922,687.241577 1194.439209,669.781250 1170.103027,659.981567 
	C1168.660522,659.400696 1167.161987,658.107178 1166.439697,656.746948 
	C1164.159180,652.452393 1162.631470,647.726318 1160.107910,643.597839 
	C1146.846069,621.901245 1127.043579,611.369751 1101.022339,610.024475 
M1298.965698,1137.531250 
	C1292.644531,1145.770142 1286.090088,1153.804199 1282.534302,1163.837646 
	C1277.228638,1178.808594 1275.858521,1193.982666 1277.861938,1209.765381 
	C1279.790527,1224.958252 1285.717651,1238.182251 1295.344849,1249.766113 
	C1314.299072,1272.572388 1339.670776,1281.934204 1368.437622,1282.795898 
	C1378.166260,1283.087158 1388.090210,1281.671753 1397.708130,1279.875122 
	C1420.512451,1275.615479 1438.469971,1263.417969 1452.054321,1244.677734 
	C1466.131958,1225.256714 1469.723633,1203.276367 1465.766968,1180.345581 
	C1460.965454,1152.519287 1444.642090,1132.223877 1419.957275,1119.129272 
	C1399.231323,1108.134766 1376.859375,1106.759155 1353.841919,1109.848145 
	C1332.470703,1112.716187 1314.628296,1122.034668 1298.965698,1137.531250 
z"/>
<path fill="#5170FF" opacity="1.000000" stroke="none" 
	d="
M1101.937256,610.177002 
	C1127.043579,611.369751 1146.846069,621.901245 1160.107910,643.597839 
	C1162.631470,647.726318 1164.159180,652.452393 1166.439697,656.746948 
	C1167.161987,658.107178 1168.660522,659.400696 1170.103027,659.981567 
	C1194.439209,669.781250 1209.919922,687.241577 1215.849365,712.867859 
	C1216.766357,716.830994 1216.953613,721.034790 1216.954956,725.127502 
	C1217.007690,887.787903 1216.991211,1050.448364 1217.008911,1213.108765 
	C1217.011719,1239.025513 1199.318359,1266.025391 1175.197876,1275.573242 
	C1166.167480,1279.147827 1157.229980,1281.054688 1147.591064,1281.050537 
	C984.430664,1280.979980 821.270264,1280.992310 658.109863,1281.013428 
	C643.832703,1281.015259 631.427002,1275.781250 620.128723,1267.577393 
	C609.104126,1259.572388 601.602051,1248.874634 596.505188,1236.272583 
	C595.555481,1233.924561 593.105408,1231.424927 590.761780,1230.530518 
	C580.606689,1226.654907 571.780273,1220.987305 564.477295,1212.969482 
	C552.830200,1200.182129 546.026123,1185.330811 546.022156,1167.832520 
	C545.985046,1004.338806 546.016907,840.845154 545.971985,677.351440 
	C545.967896,662.524109 551.254517,649.590088 559.736145,637.870056 
	C568.989746,625.083374 581.532471,616.712097 596.784973,612.758118 
	C602.445862,611.290649 608.389709,610.914490 614.994751,610.302124 
	C617.433838,610.709045 619.082581,610.981689 620.731384,610.981934 
	C779.183960,611.001343 937.636536,611.002991 1096.089111,610.965881 
	C1098.038452,610.965454 1099.987915,610.451355 1101.937256,610.177002 
M902.704468,1072.973145 
	C900.091431,1072.648193 897.463440,1072.413208 894.867737,1071.983765 
	C878.464539,1069.269775 864.660034,1061.909302 854.188293,1048.821167 
	C841.857849,1033.409912 836.124512,1015.434814 833.804565,996.104980 
	C831.120789,973.743896 831.739380,951.586731 836.938904,929.593384 
	C844.676208,896.865845 870.320496,870.440186 900.558228,870.726562 
	C910.866699,870.824219 921.041138,870.605286 930.844849,873.875183 
	C948.157593,879.649536 960.110657,891.580078 966.914490,908.214478 
	C969.490845,914.513306 972.667114,916.237732 979.273010,916.176453 
	C1017.931091,915.817993 1056.594238,916.000549 1095.255737,916.000549 
	C1097.137695,916.000549 1099.019653,916.000549 1101.953491,916.000549 
	C1098.457031,904.658325 1095.738525,894.186951 1092.020752,884.083252 
	C1079.827515,850.947754 1060.173340,823.178162 1031.691406,801.932922 
	C1002.176575,779.917114 968.582886,769.206055 932.288452,765.971375 
	C907.122742,763.728455 882.106323,764.778687 857.378235,770.108948 
	C820.640259,778.028076 788.407104,794.675415 762.202759,821.758484 
	C725.352722,859.844055 709.797607,906.855835 707.130005,958.758850 
	C706.552246,970.000732 707.375488,981.342041 708.003662,992.612427 
	C709.102417,1012.325806 712.749878,1031.629761 719.292847,1050.256226 
	C737.390747,1101.776855 770.829468,1139.444702 821.257263,1161.192139 
	C859.521179,1177.693726 899.661072,1181.367798 940.585510,1175.944214 
	C1006.583496,1167.197876 1055.468750,1133.619385 1085.399292,1073.631104 
	C1092.696411,1059.005859 1097.517700,1043.461548 1101.152832,1027.279053 
	C1099.836670,1027.100220 1098.881104,1026.857300 1097.925415,1026.856812 
	C1056.597656,1026.836792 1015.269836,1026.872803 973.942322,1026.764893 
	C970.978333,1026.757080 969.954041,1028.070801 969.009094,1030.481567 
	C959.457031,1054.851318 939.688843,1074.209106 902.704468,1072.973145 
z"/>
<path fill="#FF914D" opacity="1.000000" stroke="none" 
	d="
M1299.211670,1137.270020 
	C1314.628296,1122.034668 1332.470703,1112.716187 1353.841919,1109.848145 
	C1376.859375,1106.759155 1399.231323,1108.134766 1419.957275,1119.129272 
	C1444.642090,1132.223877 1460.965454,1152.519287 1465.766968,1180.345581 
	C1469.723633,1203.276367 1466.131958,1225.256714 1452.054321,1244.677734 
	C1438.469971,1263.417969 1420.512451,1275.615479 1397.708130,1279.875122 
	C1388.090210,1281.671753 1378.166260,1283.087158 1368.437622,1282.795898 
	C1339.670776,1281.934204 1314.299072,1272.572388 1295.344849,1249.766113 
	C1285.717651,1238.182251 1279.790527,1224.958252 1277.861938,1209.765381 
	C1275.858521,1193.982666 1277.228638,1178.808594 1282.534302,1163.837646 
	C1286.090088,1153.804199 1292.644531,1145.770142 1299.211670,1137.270020 
z"/>
<path fill="#4080FF" opacity="1.000000" stroke="none" 
	d="
M1101.479736,610.100708 
	C1099.987915,610.451355 1098.038452,610.965454 1096.089111,610.965881 
	C937.636536,611.002991 779.183960,611.001343 620.731384,610.981934 
	C619.082581,610.981689 617.433838,610.709045 615.429932,610.370056 
	C616.070496,610.117798 617.066101,610.007507 618.061768,610.007507 
	C779.048645,610.008057 940.035461,610.016418 1101.479736,610.100708 
z"/>
<path fill="#FFFFFF" opacity="1.000000" stroke="none" 
	d="
M903.179932,1072.947876 
	C939.688843,1074.209106 959.457031,1054.851318 969.009094,1030.481567 
	C969.954041,1028.070801 970.978333,1026.757080 973.942322,1026.764893 
	C1015.269836,1026.872803 1056.597656,1026.836792 1097.925415,1026.856812 
	C1098.881104,1026.857300 1099.836670,1027.100220 1101.152832,1027.279053 
	C1097.517700,1043.461548 1092.696411,1059.005859 1085.399292,1073.631104 
	C1055.468750,1133.619385 1006.583496,1167.197876 940.585510,1175.944214 
	C899.661072,1181.367798 859.521179,1177.693726 821.257263,1161.192139 
	C770.829468,1139.444702 737.390747,1101.776855 719.292847,1050.256226 
	C712.749878,1031.629761 709.102417,1012.325806 708.003662,992.612427 
	C707.375488,981.342041 706.552246,970.000732 707.130005,958.758850 
	C709.797607,906.855835 725.352722,859.844055 762.202759,821.758484 
	C788.407104,794.675415 820.640259,778.028076 857.378235,770.108948 
	C882.106323,764.778687 907.122742,763.728455 932.288452,765.971375 
	C968.582886,769.206055 1002.176575,779.917114 1031.691406,801.932922 
	C1060.173340,823.178162 1079.827515,850.947754 1092.020752,884.083252 
	C1095.738525,894.186951 1098.457031,904.658325 1101.953491,916.000549 
	C1099.019653,916.000549 1097.137695,916.000549 1095.255737,916.000549 
	C1056.594238,916.000549 1017.931091,915.817993 979.273010,916.176453 
	C972.667114,916.237732 969.490845,914.513306 966.914490,908.214478 
	C960.110657,891.580078 948.157593,879.649536 930.844849,873.875183 
	C921.041138,870.605286 910.866699,870.824219 900.558228,870.726562 
	C870.320496,870.440186 844.676208,896.865845 836.938904,929.593384 
	C831.739380,951.586731 831.120789,973.743896 833.804565,996.104980 
	C836.124512,1015.434814 841.857849,1033.409912 854.188293,1048.821167 
	C864.660034,1061.909302 878.464539,1069.269775 894.867737,1071.983765 
	C897.463440,1072.413208 900.091431,1072.648193 903.179932,1072.947876 
z"/>
</svg>