<?xml version="1.0" encoding="UTF-8"?>
<svg version="1.1" xmlns="http://www.w3.org/2000/svg" width="512" height="512">
<path d="M0 0 C0.9486641 -0.00445784 1.89732821 -0.00891569 2.87473971 -0.01350862 C3.91392296 -0.01332426 4.95310621 -0.01313989 6.02377987 -0.01294994 C7.13016259 -0.01662663 8.2365453 -0.02030332 9.37645477 -0.02409142 C13.09727495 -0.03513643 16.8180672 -0.03897352 20.53890133 -0.04278088 C23.20141421 -0.04904494 25.86392411 -0.05567891 28.5264349 -0.0626936 C36.52636947 -0.08244514 44.52630528 -0.09252303 52.52625814 -0.10142139 C56.29594006 -0.10580686 60.06562058 -0.11117304 63.8353014 -0.11641026 C76.37099478 -0.13342203 88.90668729 -0.14791508 101.44239044 -0.155159 C104.69461283 -0.15706882 107.94683522 -0.15898916 111.19905758 -0.16094494 C112.41150727 -0.16167055 112.41150727 -0.16167055 113.6484509 -0.16241082 C126.73552528 -0.17070697 139.82250813 -0.19603707 152.90954257 -0.22852562 C166.35348168 -0.26162734 179.79737433 -0.27961061 193.24135441 -0.28280324 C200.78647725 -0.28496557 208.33146666 -0.29367344 215.87654972 -0.31926441 C222.30385461 -0.3410141 228.73099365 -0.34900099 235.15833116 -0.33929763 C238.43472594 -0.33476502 241.71070884 -0.33877797 244.98707104 -0.35605907 C248.5478521 -0.37378591 252.10777306 -0.36666674 255.66855526 -0.35352612 C256.69212346 -0.36449536 257.71569166 -0.37546461 258.77027708 -0.38676625 C269.08305268 -0.29524578 278.92278277 2.7354253 286.32186031 10.17718983 C295.29061031 19.87708792 295.29061031 19.87708792 295.29061031 26.13422108 C296.56936031 26.44359608 297.84811031 26.75297108 299.16561031 27.07172108 C307.16509576 29.74662788 314.2221949 36.41268945 318.24034059 43.81028461 C321.94171736 52.00033736 322.73188361 60.6486917 322.67156124 69.5189867 C322.67624121 70.59883083 322.68092119 71.67867496 322.68574297 72.79124165 C322.69761582 76.37444671 322.68826586 79.95726383 322.67879391 83.54047108 C322.68286302 86.12372528 322.68820681 88.70697775 322.69472408 91.29022694 C322.70800861 97.55716649 322.70520739 103.82399777 322.69648616 110.09094143 C322.6896891 115.18781511 322.6888016 120.28465861 322.69205761 125.38153553 C322.69251731 126.10914034 322.69297701 126.83674516 322.69345064 127.5863986 C322.69440989 129.06487943 322.69538253 130.54336024 322.69636841 132.02184105 C322.70490683 145.85980828 322.69511254 159.69771572 322.67896731 173.53567314 C322.66556553 185.38886487 322.66789406 197.24196844 322.68172359 209.09515858 C322.69780684 222.88628813 322.704083 236.67736538 322.6948868 250.468503 C322.69393124 251.9413042 322.69298812 253.41410541 322.69205761 254.88690662 C322.69159478 255.61140334 322.69113196 256.33590005 322.6906551 257.08235121 C322.68807344 262.1684203 322.69241838 267.25445599 322.69949627 272.34051991 C322.70882739 279.19589767 322.70210888 286.05110687 322.6848135 292.90646839 C322.6808589 295.41702468 322.68196503 297.92759501 322.68860149 300.43814564 C322.69684753 303.87543515 322.68645808 307.31219906 322.67156124 310.74945545 C322.67825341 311.73352627 322.68494557 312.71759708 322.69184053 313.73148823 C322.5847293 326.54813673 319.26600039 336.21534836 310.91561031 345.88422108 C301.32309494 354.10637711 291.48064456 356.59654633 279.00122738 356.52190113 C277.90746345 356.52728667 276.81369953 356.53267221 275.68679124 356.53822094 C272.04444188 356.55245748 268.40245815 356.54540721 264.76009274 356.53827381 C262.13934698 356.54397965 259.51860371 356.55094474 256.89786434 356.55907154 C250.53139494 356.57621841 244.16502442 356.57710803 237.79853793 356.57185864 C232.62010208 356.56780753 227.44169532 356.56927164 222.26326084 356.5746069 C221.52457233 356.57535532 220.78588381 356.57610374 220.02481079 356.57687484 C218.52386463 356.57840642 217.02291848 356.57994476 215.52197234 356.58148981 C201.46366327 356.59520031 187.40540993 356.58978768 173.34710214 356.5783046 C160.50747669 356.56837673 147.66799544 356.58130771 134.82839223 356.60523879 C121.62154297 356.62966748 108.41476076 356.63922823 95.20788938 356.63258606 C87.80253551 356.62910181 80.39729245 356.63127302 72.99195576 356.64883709 C66.0257628 356.6651556 59.05984872 356.66031888 52.09366322 356.64153194 C49.54321246 356.63785377 46.99274123 356.64093187 44.44230938 356.65141773 C13.40228083 356.76925018 13.40228083 356.76925018 1.45076656 346.35297108 C-2.48315914 342.31233853 -5.79485093 337.90680464 -7.57267094 332.51703358 C-9.03181226 329.45835246 -10.31086026 328.98689877 -13.39688969 327.69672108 C-22.86866524 323.2602285 -28.74982944 316.98610844 -32.70938969 307.13422108 C-35.74340421 294.79944103 -34.9910502 281.86974218 -34.96817875 269.27289295 C-34.97089213 266.76007963 -34.974455 264.2472671 -34.97879887 261.73445606 C-34.98694258 255.64312843 -34.9857911 249.55186549 -34.97997358 243.46053708 C-34.97543923 238.50576793 -34.97485182 233.55101258 -34.97702122 228.59624195 C-34.97732768 227.88848888 -34.97763415 227.18073581 -34.9779499 226.45153567 C-34.97858941 225.01332112 -34.97923784 223.57510657 -34.97989509 222.13689202 C-34.98558517 208.68089396 -34.9790613 195.22492324 -34.96829435 181.76892966 C-34.95936005 170.24696234 -34.96091246 158.72503533 -34.97013187 147.20306873 C-34.98085793 133.79208129 -34.98503597 120.38111776 -34.97890735 106.97012663 C-34.97827031 105.53748449 -34.97764157 104.10484235 -34.97702122 102.6722002 C-34.97671267 101.96748796 -34.97640412 101.26277572 -34.97608621 100.53670856 C-34.97436627 95.59337169 -34.9772592 90.65005009 -34.98198032 85.70671558 C-34.98820633 79.04177278 -34.9837134 72.37691736 -34.97219181 65.71197796 C-34.96955794 63.27279187 -34.97028844 60.83359935 -34.97471714 58.39441586 C-35.03374789 22.56611192 -35.03374789 22.56611192 -24.88907719 11.07172108 C-18.06423947 4.66134719 -9.46821547 0.02068244 0 0 Z " fill="#506FFF" transform="translate(46.70938968658447,53.86577892303467)"/>
<path d="M0 0 C0.72428192 0.00465271 1.44856384 0.00930542 2.1947937 0.01409912 C27.92252098 0.20779942 51.79060246 6.31027347 71.6875 23.375 C72.698125 24.138125 73.70875 24.90125 74.75 25.6875 C85.38824959 35.42036665 92.98916572 47.81144039 98.5625 61 C98.84883301 61.66789551 99.13516602 62.33579102 99.43017578 63.02392578 C101.04041597 67.0199939 102.0388055 70.89788275 102.77783203 75.14599609 C102.95041534 76.12780853 103.12299866 77.10962097 103.30081177 78.1211853 C103.42841888 78.86494415 103.556026 79.608703 103.6875 80.375 C94.81254948 80.65359085 85.93911206 80.86651514 77.06073666 80.99674606 C72.93743471 81.05926901 68.81713184 81.14397228 64.69555664 81.28027344 C60.71414097 81.41110861 56.735599 81.48249016 52.75219917 81.51352692 C51.23638188 81.5356265 49.72071475 81.57879379 48.20612907 81.64376068 C43.50791453 81.83718749 39.21784477 81.83081138 34.6875 80.375 C32.07058109 77.51981497 30.60017069 74.89648917 29.05470276 71.35552979 C26.45939913 65.69771516 21.58260048 62.05515987 16 59.5 C6.05333309 56.12188671 -6.18661896 55.33903834 -15.875 59.8125 C-26.59858327 66.08506172 -32.72572349 75.98536736 -35.9296875 87.78515625 C-37.64405482 94.87914622 -37.71961768 101.73336237 -37.625 109 C-37.62983398 110.86785156 -37.62983398 110.86785156 -37.63476562 112.7734375 C-37.55086533 127.23479734 -34.93936387 142.65592907 -24.3125 153.375 C-14.34453023 161.58678586 -5.95359638 163.01522794 6.6875 162.375 C15.05894119 161.42248025 22.29157062 157.51375905 27.5625 151 C30.44517749 147.17035599 31.69394528 144.02662767 33.6875 139.375 C56.7875 139.375 79.8875 139.375 103.6875 139.375 C97.79383689 165.89648398 84.59668188 188.1757568 61.6875 203.375 C45.48097648 213.62336925 27.77406004 218.47901519 8.6875 219.375 C7.44484375 219.44074219 6.2021875 219.50648438 4.921875 219.57421875 C-24.15171614 220.61664122 -51.5742093 211.832552 -73.3125 192.375 C-73.93382812 191.83617187 -74.55515625 191.29734375 -75.1953125 190.7421875 C-95.15101249 172.27156286 -104.50593187 143.29192788 -105.59765625 116.7890625 C-106.3650016 84.59605797 -98.7111594 54.97734711 -76.87109375 30.65625 C-71.50091648 25.0759719 -65.84869583 20.51034429 -59.3125 16.375 C-58.42175781 15.78976563 -57.53101563 15.20453125 -56.61328125 14.6015625 C-50.94493207 11.0598109 -45.20811973 8.3746993 -38.9375 6.125 C-38.29095459 5.89095459 -37.64440918 5.65690918 -36.97827148 5.41577148 C-24.77298715 1.26100278 -12.80435622 -0.14682755 0 0 Z " fill="#FEFEFF" transform="translate(203.3125,135.625)"/>
<path d="M0 0 C9.59139651 7.19743369 15.90772201 15.47436051 19.046875 27.18359375 C21.0733429 41.82645861 19.19650596 54.69017462 10.41015625 66.80859375 C1.9510469 76.80890729 -8.67654418 82.65827478 -21.71484375 84.55859375 C-22.99359375 84.64109375 -24.27234375 84.72359375 -25.58984375 84.80859375 C-26.29882812 84.86015625 -27.0078125 84.91171875 -27.73828125 84.96484375 C-42.14908396 85.5393608 -55.81870626 81.94454764 -66.83984375 72.55859375 C-76.84336743 63.02545519 -81.6593955 52.22642059 -82.08984375 38.30859375 C-81.74547045 27.17385692 -78.65007909 17.46892915 -71.58984375 8.80859375 C-71.038125 8.12152344 -70.48640625 7.43445313 -69.91796875 6.7265625 C-52.9576184 -12.22699141 -20.50437276 -13.36951785 0 0 Z " fill="#FF914C" transform="translate(481.58984375,326.19140625)"/>
</svg>
